<?xml version="1.0" encoding="utf-8"?>
<!-- Generator: Adobe Illustrator 21.1.0, SVG Export Plug-In . SVG Version: 6.00 Build 0)  -->
<svg version="1.1" id="Calque_1" xmlns="http://www.w3.org/2000/svg" xmlns:xlink="http://www.w3.org/1999/xlink" x="0px" y="0px"
	 viewBox="0 0 2500 706" style="enable-background:new 0 0 2500 706;" xml:space="preserve">
<style type="text/css">
	.st0{fill:#1D1D1B;}
</style>
<path class="st0" d="M143.2,0c-22.9,0-52.5,24.2-70,40.4C34.8,74.5,0,137.3,0,187.6c0,71.6,60.9,98.6,76.3,98.6
	c5.1,0,9.4-2.6,9.4-9.5c0-5.4-3.4-9.9-6.8-14.5c-14.1-21.5-18.6-42.1-18.6-69.8c0-57.8,26.7-110.8,48.8-135.1
	c4.1-4.4,13.3-13.9,16.1-13.9c2.7,0,3.4,2.2,3.4,9.1L125.9,431c0,59.2-17.1,82.7-17.1,96.6c0,6.1,2.7,7.7,7.7,7.7
	c24,0,47.8-29.2,54.6-39.9c21-36.2,26.1-64.5,26.1-146.1v-318c0-8.6-2.4-12.3-10.6-17.6C174.7,6.1,161,0,143.2,0z M828.3,1.1
	c-11.3,0-16.1,5.9-16.6,24.1l-2.5,75.5l-66-2.3c-4-0.1-5.8,1.2-7.6,4.7c-5.6,10.5-8.6,18.7-8.6,32.5c0,11.2,5.1,12.4,9.6,12.4
	l68.7,2l-0.2,144.2c0,30.6-19.3,70.3-53.5,103.3c0,0,2.9-10,2.8-20.4c0-29.6-19-56.4-44.4-75.4l-62-46.6c13-15,35-44.8,35-70
	c0-19.5-12.3-27.7-35.1-27.7c-32.3,0-69.7,29.6-69.7,73.4c0,16,7.1,30.4,17.9,41.4c-14.9,28.3-36,65.6-51.7,92.1
	c-11.8,20.3-31.9,51.4-43.7,51.4c-8.7,0-12.8-13.7-12.8-66.6c0-43.9,3.1-91.6,4.7-137.4c0-10.5-1.7-20.2-15.4-29.7
	c-12.5-8-28-19.3-44-19.3c-35.5,0-59.6,32.6-76.2,64.5c-17.1,33.1-26.4,60.9-39.5,101.4l1.4-139.1c0.4-9.9-2.1-13.8-10-17.1
	c-10.3-4.4-25.5-9.4-38.9-9.4c-11.2,0-12.6,4.8-12.6,16.7l-1.5,166.9l-0.2,64.4c0,58.1,7.3,67.7,41.7,67.7
	c19.1,0,25.2-2.2,25.6-18.1c0.5-10.5,5.5-35.9,12.3-61.4c19.8-75.2,43.4-134.7,83.9-180c4.2-4.4,7.5-2.8,6.8,3.4
	c0,0-6.4,101.8-6.4,143.4c0,74,11.4,112.7,48.2,112.7c36.2,0,71.7-46.4,91-77.8l62.2-104c40.3,34.3,68.4,60.9,68.4,93.3
	c0,20.1-12.7,39.8-32,39.8c-24.2,0-39.6-25.5-55.9-25.5c-13.6,0-30.9,26.2-30.9,41c0,14,30.6,33.9,85.5,33.9
	c81.1,0,124.5-55.6,150.6-117.2c5,73.1,34.1,115.8,79.6,115.8c29.8,0,64.2-37.7,79.9-83.6c0,0,1.5,11.9,13.4,36.4
	c16.4,31.9,41.3,46.6,72.2,46.6c38.5,0,71.4-23.3,91.5-62.5c3,29.7,27.9,62.3,68,62.3c25.1,0,48-19.3,63.1-51
	c0,0,19.5,52.4,75.8,52.4c31.6,0,69.1-29.3,78.1-50.6l1,31l-83.6,77.1c-24.3,23.6-50.1,57.4-50.1,94.9c0,47.7,45,75.1,84.6,75.1
	c41.2,0,68.5-26.1,83.5-47.9c18.8-28.3,26.8-81.6,26.8-133.7l-1.9-78.4c56.3-61.9,100.5-147.6,120.1-208.1l42.8-1.1
	c8.3-0.6,7.9,2.7,6.7,7.5c-7.5,31.8-14.1,67.7-14.1,103.6c0,59.2,13.6,85,33.2,106c17,17.6,34,23.6,51.8,23.6
	c34.9,0,56.8-28.8,63.7-47c16.4,31.9,40.5,46.8,71.4,46.8c38.5,0,71.4-23.3,91.5-62.5c3,29.7,27.9,62.3,68,62.3
	c29.9,0,47.3-17.3,60.9-49.8c0.3,10.5,0.7,21.6,1,32.1c0.4,5.4,4.7,8.8,8.6,10.2c12.7,4.8,23.9,7.2,33.9,7.2
	c26.1,0,31.8-5.4,31.8-22.5c0-28.2,0.8-72.7,8.8-108.5c8.5-35.6,21.3-75.9,39-104c1.6-2.9,5.5-2.1,5.7,1.4
	c2.5,60,6.6,161.6,22.3,187.9c7.8,12.5,19.8,21.7,37.8,21.7c8.4,0,18.8-3.6,21.4-5.8c2.7-2.1,4-4.4,3.9-8.7
	c0-76.7,23.9-151,47.9-200.9c0.7-1.5,2.5-1.6,2.5,0.4l-1.3,55.3c0,90.8,6.5,148.1,51.9,175.7c8.9,5,19,7.6,29.2,7.6
	c23.2,0,44.2-13,54.6-33.8c8.5-16.2,16.4-47.4,16.4-65c0-6.8,0.1-18-11.1-18c-6.1,0-9.8,4.5-11.3,11.4c-3.6,14.8-6.5,27.5-12,42.2
	c-5.3,14-13.2,22.1-22.6,22.1c-11,0-16.6-8.7-19.8-14c-14-21.4-15.2-70.6-15.2-111.7l3.4-105.7c0-8.7-3.7-19.2-17.1-26.9
	c-9.1-5.2-32-15-46-15c-13,0-19.3,7.4-24,18.2c-8.8,19.4-38.3,95.7-46.2,157.7c-0.3,1.6-2.3,2-2.5-0.1c-4.1-43.8-6.2-96.7-6.2-132.3
	c0-10.8-2.6-26.2-25.5-36.2c-11.1-4.6-20.3-7.4-31.5-7.4c-13.9,0-16.9,6.8-21.9,15.8c-15.8,29.1-26.7,67.1-43,115.1l0.2-109.7
	c0-5.1-3.1-11.8-12.1-13.7c-22.3-5.1-32.7-7.5-41.5-7.5c-6.4,0-9.9,5.1-9.9,10.6l-1.2,187c-4.3,22.9-21.8,77.5-46.6,77.5
	c-20.4,0-29.9-20.6-29.9-106.9l3.7-140.3c0-8.9-5.8-12.6-14.3-16.3c-12.1-4.8-21.8-6.7-34.1-6.7c-15.5,0-20.8,7.4-17.6,25.2
	c-17-23-34-35.7-64-35.7c-60.3,0-105.7,72.5-105.7,177.8c-0.6,29.5,6.5,58.9,6.5,58.9c-5.5,24.5-18.3,44.5-36,44.5
	c-22.3,0-36.6-31.6-36.6-86.3c0-54.9,20.9-116.8,20.9-133.6c0-19.5-12.8-31.9-35.4-31.9c-11.3,0-53.4,9.5-75,12.7
	c0,0,2.4-10.3,2.3-18.3c0-19.2-9-31.3-31.4-31.3c-27.4,0-47.5,19.6-47.5,52.9c0,15,8.6,28.8,20,36.3
	c-14.8,61.8-38.9,107.7-74.4,159.1l3-207.8c0-6.8-1.8-11-15-16.1c-7-3-18.4-6.5-32.8-6.5c-20.8,0-19.5,14.9-18.3,26
	c-9.5-16.9-30.4-37-62.6-37c-87.7,0-114.7,133.8-101.5,228.8c0,11.6-11.3,52.7-36.9,52.7c-20.4,0-29.9-20.6-29.9-106.9l3.7-140.3
	c0-8.9-5.9-12.6-14.3-16.3c-12.1-4.8-21.7-6.7-34-6.7c-15.5,0-20.8,7.4-17.6,25.2c-17-23-34-35.7-64-35.7
	c-60.3,0-106.3,66.3-106.3,171.6c0,40.2-34.6,101.6-58.9,101.6c-13.5,0-27.8-24.8-27.8-88c0.1-43.1,5.9-189.9,5.9-189.9l84.7-1.4
	c4,0,6.4-4.5,7.9-7.2c3.9-7.9,5.8-13.2,5.8-22.6c0-8.5-1.7-11.6-12.6-12.3L882,103l3.6-78.7c0.3-5-2.7-8.2-8.2-10.6
	C861,7.3,841,1.1,828.3,1.1z M1084.8,207.3c22.6,0,45.5,20.6,45.5,93.7c0,92-33.5,134.9-59.3,134.9c-24.2,0-42.5-34.1-42.5-101.1
	C1028.4,266.9,1046.3,207.3,1084.8,207.3L1084.8,207.3z M1898.4,207.3c22.6,0,45.5,20.6,45.5,93.7c0,92-33.5,134.9-59.3,134.9
	c-24.2,0-42.5-34.1-42.5-101.1C1842.1,266.9,1860,207.3,1898.4,207.3L1898.4,207.3z M1382.3,207.7c29.5,0,42.5,30.4,42.5,89.3
	c0,88.8-26.4,139.4-58.5,139.4c-20.5,0-44-33.6-42.8-99.7C1323.6,294.4,1337.4,207.7,1382.3,207.7L1382.3,207.7z M1432.3,504.8v35
	c0,116.1-30.9,135.9-55.8,135.9c-9.4,0-32.5-7.1-32.5-35.8c0-40.2,42-85.8,55-99.9L1432.3,504.8L1432.3,504.8z"/>
</svg>
